<svg width="63" height="63" viewBox="0 0 63 63" fill="none" xmlns="http://www.w3.org/2000/svg">
<path d="M46.6698 46.6809C45.4782 47.2518 44.1242 47.4087 42.8297 47.1259C41.9484 46.9293 41.0901 46.644 40.2685 46.2745L38.4535 45.5463C36.8724 45.0612 35.1845 45.0192 33.5803 45.425H33.4153C31.8167 44.9788 30.1175 45.0212 28.5441 45.5463C27.9253 45.7486 27.3459 46.0318 26.7272 46.2745C25.9022 46.6404 25.034 46.9641 24.1678 47.1663C22.8732 47.4462 21.5202 47.2894 20.3278 46.7213L20.1628 46.6404C20.1215 46.6404 20.1215 46.6404 20.1215 46.6809C20.7843 47.3486 21.5933 47.8597 22.4873 48.1755C23.3813 48.4912 24.3368 48.6032 25.2815 48.5032C26.4371 48.3491 27.54 47.933 28.5028 47.2877L30.2372 46.1531C30.8844 45.7425 31.6701 45.5973 32.4253 45.7486C32.8378 45.7891 32.5078 45.9913 32.4666 46.0318C31.4282 46.5242 30.4453 47.122 29.5341 47.8155C28.9153 48.2586 27.7997 49.3123 27.7997 49.3123L28.6247 50L29.5341 49.0291C30.6488 47.892 31.9289 46.9229 33.3328 46.1531C33.3864 46.1138 33.4515 46.0925 33.5185 46.0925C33.5854 46.0925 33.6505 46.1138 33.7041 46.1531C35.108 46.9229 36.3881 47.892 37.5029 49.0291L38.4122 50L39.2372 49.3123L37.5029 47.8136C36.5921 47.1209 35.6099 46.5237 34.5722 46.0318C34.4897 45.9913 34.201 45.7891 34.6135 45.7486C35.356 45.5868 36.1397 45.7486 36.8016 46.1531L38.536 47.2877C39.4984 47.932 40.6007 48.3476 41.7554 48.5013C42.4997 48.5841 43.2835 48.5436 44.026 48.3395C45.1116 48.0225 46.1034 47.4535 46.9173 46.6809C46.9173 46.6809 46.876 46.6404 46.8348 46.6404L46.6698 46.6809ZM50.7142 43.1577C50.1921 43.5482 49.6063 43.8491 48.9817 44.0477C48.1135 44.2922 47.1629 44.4522 46.2554 44.4522C45.0591 44.4945 43.9023 44.5754 42.706 44.7372C42.6235 44.7372 42.5822 44.7372 42.6235 44.6968C43.6548 44.2922 44.4798 43.4831 44.9354 42.5086L46.0904 40.2027V40.1199C46.0079 40.1604 44.8529 41.1331 44.3148 41.6186L42.3741 43.4813C41.503 44.2136 40.4722 44.7402 39.361 45.0204H39.3197L39.2785 45.0609L41.5079 45.5868C42.463 45.8634 43.4454 46.0397 44.4385 46.1127C45.6678 46.2314 46.9069 46.0234 48.026 45.5106C49.1451 44.9978 50.1027 44.199 50.7985 43.1981C50.7985 43.1577 50.7554 43.1577 50.7142 43.1577ZM54.3479 37.7331C53.7618 38.4307 53.0655 39.0316 52.2854 39.5131C51.6235 39.9581 50.9223 40.3222 50.1779 40.6477C49.2409 41.0189 48.3647 41.5233 47.5773 42.1445L47.4123 42.2677C47.371 42.2677 47.371 42.2677 47.371 42.2254C47.371 42.1849 48.6085 40.9713 48.9817 38.419C49.0229 37.4885 49.1879 36.5985 49.3942 35.7067V35.6258C48.5363 36.6677 47.866 37.8455 47.4123 39.1085L46.6698 41.1736C46.3791 42.104 45.8448 42.9554 45.1416 43.6431L45.0591 43.724V43.7645C45.1416 43.7645 45.2241 43.724 45.3066 43.724L47.701 43.2386C49.0169 43.0308 50.263 42.5169 51.3348 41.7399C52.4348 40.9605 53.327 39.9323 53.9354 38.7426C54.1004 38.4208 54.2242 38.0953 54.3479 37.7717C54.4304 37.6908 54.3892 37.6908 54.3479 37.7313M55.9173 31.6576C55.5364 32.7672 54.8843 33.7685 54.0179 34.574C53.0353 35.5192 52.1247 36.5339 51.2935 37.6099C51.2935 37.6503 51.211 37.6099 51.2523 37.5694C51.5831 36.4529 51.6675 35.28 51.4998 34.129C51.3348 33.1562 50.9223 32.1044 50.7985 30.9294L50.7554 30.8889C50.7554 30.9294 50.7142 30.9698 50.7142 31.0103C50.4668 31.7741 50.3009 32.5611 50.2192 33.3585C50.1779 34.3312 50.3429 35.5853 50.2604 36.5581C50.1779 37.6908 50.0954 38.8658 49.5592 39.8772V39.9581L52.036 38.4613C53.0546 37.823 53.9377 36.9975 54.6367 36.0303C55.5341 34.7883 56.0109 33.3011 55.9998 31.7789V31.6171C55.9586 31.6171 55.9173 31.6576 55.9173 31.6576ZM53.2735 32.3067C53.316 32.3067 53.316 32.3067 53.2735 32.3067C53.2735 31.9812 53.2735 31.6576 53.2342 31.3339C53.1517 30.2012 52.4485 29.2689 51.8298 28.298C51.4083 27.6787 51.0353 27.029 50.7142 26.3543C50.7142 26.3543 50.6729 26.3139 50.6317 26.3139C50.6317 26.3948 50.6317 26.7589 50.6729 26.9612C50.8792 28.5793 51.2917 30.2012 51.9123 31.7385C52.2835 32.7112 52.4073 33.7244 52.3248 34.7358C52.3248 34.8167 52.3248 34.8167 52.366 34.8571C52.7373 34.3312 53.4817 33.6012 53.9354 33.0349C54.3892 32.4685 56.8661 29.7139 55.6698 25.9093C55.6286 25.7457 55.5461 25.5839 55.4636 25.4221L55.4223 25.4625C55.4223 28.2171 54.0592 29.3903 53.5229 31.2549C53.4195 31.6004 53.3368 31.9516 53.2754 32.3067M53.3167 26.6375L53.0692 25.9903L52.9042 25.6243C52.487 24.8884 51.9088 24.2522 51.211 23.7616C50.6417 23.292 50.1413 22.7475 49.7242 22.1434H49.6004C49.6417 22.2648 50.0129 23.4784 50.2604 24.0466C50.6729 24.8152 51.1698 25.5839 51.7473 26.233L51.871 26.3948C52.571 27.3265 53.1079 28.3385 53.4817 29.4307C53.4817 29.4712 53.5229 29.4712 53.5229 29.4712L54.2242 27.3657C54.4717 26.6375 54.6779 25.8671 54.8429 25.0984C55.0923 23.278 54.5129 20.9684 53.4404 19.6738C53.4404 19.6738 53.3992 19.7125 53.3992 19.7548L53.4404 19.9166L53.5229 20.1593C53.7292 21.1302 53.7704 22.182 53.5642 23.1566C53.3992 23.9252 53.3579 24.7343 53.3579 25.5434C53.3579 25.6648 53.4404 26.678 53.4404 26.7184C53.4404 26.7589 53.3992 26.7184 53.3579 26.7184M50.0129 16.4743C50.3429 16.7979 50.6317 17.162 50.7985 17.607C51.0873 18.2965 51.1698 19.3079 51.376 20.0784L51.7473 21.4134C51.7473 21.4538 51.706 21.4943 51.6648 21.4538C51.0395 20.7196 50.2834 20.1028 49.4335 19.6334C48.8579 19.3079 48.4023 18.8629 47.9898 18.3775L47.7835 18.0943C47.7835 18.0943 47.7423 18.0538 47.701 18.0943V18.2156C47.9073 19.1056 48.3198 19.957 48.9817 20.6429C49.5179 21.1302 50.0954 21.5752 50.6317 22.022C51.3428 22.6184 52.0054 23.2683 52.6135 23.9657C52.6135 23.9657 52.6548 24.0061 52.6548 23.9657V23.3166L52.696 21.3729V20.7257C52.696 20.0784 52.5723 19.3888 52.3248 18.782C51.9123 17.7706 51.1285 16.9616 50.1779 16.4743C50.1367 16.4338 50.0542 16.4338 49.9717 16.3933C49.9717 16.3933 49.9717 16.4338 50.0129 16.4743ZM45.7623 14.5711C46.3398 15.097 46.8366 15.7056 47.2904 16.3529C47.7029 17.0002 48.1566 17.5665 48.7342 18.0943C49.1073 18.4584 50.221 19.3079 50.5098 19.5506C50.4685 19.227 49.9323 16.9211 48.4867 15.7865C47.6518 15.1277 46.6795 14.6569 45.6385 14.4074V14.4902L45.7623 14.5711ZM22.6397 46.1127C23.6066 46.0412 24.5624 45.8648 25.4897 45.5868L27.7172 45.0609H27.7584C27.7584 45.0609 27.7584 45.0204 27.7172 45.0204H27.6759C26.5563 44.7287 25.5138 44.2037 24.6197 43.4813L22.6809 41.6609L20.9053 40.1604V40.2431C21.0703 40.4858 21.6909 41.8208 22.0622 42.5509C22.5159 43.5622 23.3409 44.3327 24.374 44.7372C24.4153 44.7777 24.374 44.7777 24.2915 44.7777C23.1137 44.622 21.9283 44.5275 20.7403 44.4945C19.8328 44.4945 18.884 44.3327 18.0159 44.09C17.3905 43.891 16.804 43.5895 16.2815 43.1981H16.199C17.0225 44.3364 18.1715 45.2099 19.5009 45.7081C20.5146 46.0238 21.5772 46.1608 22.6397 46.1127ZM21.6909 43.724C21.7734 43.724 21.8147 43.7645 21.9384 43.7645V43.724L21.8559 43.6431C21.1623 42.9441 20.6398 42.0997 20.3278 41.1736L19.5853 39.1085C19.1315 37.8455 18.4613 36.6677 17.6034 35.6258V35.7067C17.8509 36.5985 17.9746 37.4904 18.0571 38.4208C18.4284 40.9308 19.6678 42.1445 19.6678 42.1849C19.6678 42.2254 19.6678 42.2677 19.6265 42.2254L19.4596 42.104C18.6722 41.4828 17.796 40.9785 16.859 40.6072C16.1232 40.2929 15.4184 39.9132 14.7534 39.4726C13.9732 38.9906 13.2768 38.3891 12.6909 37.6908H12.6459C12.7696 38.0144 12.8934 38.3399 13.0584 38.6635C13.6771 39.8367 14.5865 40.8885 15.7021 41.6609C16.7746 42.4699 18.014 42.9959 19.334 43.1577C20.1196 43.3599 20.9053 43.5622 21.6909 43.724ZM15.0402 38.4613L17.519 39.9581C17.519 39.9581 17.5603 39.9176 17.5603 39.8772C17.0221 38.8254 16.9415 37.6908 16.8571 36.5581C16.7746 35.5467 16.9396 34.3312 16.8984 33.3585C16.8168 32.5478 16.651 31.7474 16.4034 30.9698C16.4034 30.9294 16.3621 30.8889 16.3621 30.8485L16.3209 30.8889C16.2384 32.0639 15.7846 33.1158 15.6196 34.0885C15.4548 35.2397 15.5391 36.4119 15.8671 37.529C15.9084 37.5694 15.8259 37.6099 15.8259 37.5694C15.0061 36.4844 14.0941 35.4694 13.0996 34.5354C12.2371 33.743 11.5867 32.7547 11.2059 31.6576C11.2059 31.6576 11.1627 31.6171 11.1215 31.6171C11.0802 31.6171 11.1215 31.698 11.1215 31.7789C11.1215 33.2776 11.5771 34.7762 12.4846 36.0303C13.1446 36.9626 14.0127 37.814 15.044 38.4613M14.5902 34.8976C14.6315 34.8571 14.6315 34.8571 14.6315 34.7762C14.549 33.7649 14.6727 32.7112 15.0852 31.7789C15.6646 30.2417 16.0771 28.6621 16.3246 27.0016C16.3246 26.7993 16.3659 26.4353 16.3659 26.3543C16.3246 26.3543 16.3246 26.3543 16.3246 26.3948C16.0034 27.0694 15.6305 27.7192 15.209 28.3385C14.549 29.2285 13.889 30.2012 13.8065 31.3358C13.7627 31.658 13.7627 31.9845 13.8065 32.3067C13.8065 32.3067 13.8065 32.3471 13.7652 32.3471V32.3067L13.4765 31.3339C12.8934 29.4712 11.5752 28.298 11.5752 25.5434L11.534 25.503C11.4515 25.6648 11.4102 25.8266 11.3277 25.9903C10.1296 29.7967 12.5652 32.5494 13.0602 33.1158C13.5552 33.6821 14.219 34.3717 14.5902 34.8976ZM12.8559 27.3253L13.559 29.4307C13.559 29.4307 13.6002 29.4307 13.6002 29.3903C13.9715 28.298 14.549 27.2848 15.209 26.3543L15.3328 26.1925C15.9115 25.5036 16.4071 24.7742 16.8196 24.0043C17.0671 23.4379 17.4384 22.2243 17.4815 22.1029H17.3559C16.9434 22.7098 16.4484 23.2357 15.8709 23.7211C15.149 24.2138 14.555 24.8657 14.1365 25.6243C14.0952 25.7457 14.0127 25.8671 13.9715 25.9903L13.724 26.678C13.724 26.678 13.6827 26.7589 13.6827 26.678C13.6827 26.5971 13.7652 25.6666 13.7652 25.503C13.7652 24.6939 13.6827 23.8848 13.5177 23.1143C13.3268 22.1226 13.3408 21.1033 13.559 20.117C13.559 20.0379 13.6002 19.957 13.6415 19.8761C13.6415 19.8357 13.6827 19.7548 13.6827 19.7125C13.6827 19.6702 13.6827 19.672 13.6415 19.6315C12.5652 20.9279 11.9465 23.2761 12.194 25.058C12.4002 25.8266 12.6084 26.5971 12.8559 27.3253ZM14.3409 21.4134L14.3821 23.357V23.9639H14.4234C15.0009 23.2357 15.6609 22.5884 16.364 21.9816L18.014 20.6025C18.656 19.9213 19.0985 19.0826 19.2946 18.1752V18.0538H19.2534L19.0471 18.337C18.6612 18.8351 18.1859 19.2601 17.6446 19.5911C16.6528 20.1979 15.9928 20.6447 15.4134 21.4134C15.374 21.4538 15.3309 21.4538 15.374 21.3729L15.7453 20.0379C15.9515 19.2675 16.034 18.2543 16.3228 17.5665C16.4878 17.162 16.7765 16.7574 17.1065 16.4338V16.3529C17.024 16.3529 16.9828 16.3934 16.9003 16.4338C15.869 16.9597 15.1246 17.8111 14.7121 18.782C14.4646 19.3888 14.2996 20.0379 14.3409 20.7257V21.4134ZM16.529 19.512L18.3459 18.0557C18.8821 17.5279 19.3771 16.9616 19.7896 16.3143C20.22 15.6592 20.7335 15.0605 21.3178 14.5324L21.4415 14.4111V14.3265C20.3952 14.5602 19.4195 15.032 18.5934 15.7038C17.0653 16.877 16.5703 19.1847 16.5309 19.5102M33.1266 32.0621C33.2503 31.8985 32.9616 31.7771 32.8791 32.0621C32.7966 32.3453 33.0028 32.2644 33.1266 32.0621ZM36.2653 24.9348C36.1397 24.8943 35.686 25.4202 35.7685 25.5011C35.9854 25.3623 36.1577 25.1659 36.2653 24.9348ZM36.3478 24.8539C36.4303 24.8943 36.7191 24.7325 36.6778 24.692C36.6366 24.6516 36.2653 24.4898 36.2653 24.5707C36.2653 24.7325 36.3066 24.8134 36.3478 24.8539ZM41.9204 29.8739C42.0854 29.8334 42.0441 29.5907 41.9204 29.5907C41.7966 29.5907 41.6316 29.793 41.6729 29.793C41.7141 29.793 41.8379 29.9143 41.9204 29.8739ZM39.8972 24.4898C39.7735 24.4898 39.7322 24.6111 39.856 24.692C39.9797 24.7325 40.0622 24.692 40.1447 24.6516C40.1926 24.6303 40.2335 24.5963 40.2626 24.5534C40.2918 24.5105 40.3081 24.4604 40.3097 24.4089C40.3097 24.2875 40.1447 24.1257 40.2272 24.0448C40.3097 23.9639 40.4335 24.0852 40.5179 24.0448C40.6022 24.0043 40.6416 23.9234 40.6416 23.8425C40.6416 23.7597 40.6004 23.517 40.4354 23.517C40.2704 23.517 40.1035 23.8425 40.1035 23.8425C40.0844 23.8874 40.0746 23.9355 40.0746 23.9841C40.0746 24.0327 40.0844 24.0808 40.1035 24.1257C40.1447 24.2875 40.1035 24.4898 39.8972 24.4898ZM42.6235 24.5302C42.6235 24.6111 42.8297 25.137 42.871 25.2584C42.9122 25.3798 42.9535 25.8248 43.036 25.7843C43.1185 25.7439 43.1185 25.5011 43.0773 25.3798C43.0315 25.0917 42.9625 24.8076 42.871 24.5302C42.8297 24.3684 42.541 23.7597 42.4585 23.8002C42.3741 23.8425 42.5822 24.2047 42.6235 24.3684C42.6647 24.5302 42.5822 24.4493 42.6235 24.5302ZM41.1779 17.6456C41.3016 17.6861 41.3016 17.4433 41.0954 17.2815C40.8891 17.1197 40.5591 17.2006 40.6416 17.2815C40.8066 17.4029 40.9716 17.5647 41.1779 17.6456ZM34.9847 15.9061C34.696 15.7442 34.9435 15.5015 34.7372 15.3379C34.4897 15.2569 34.2422 15.2974 34.0753 15.4592C33.8691 15.7038 34.3247 15.621 34.4485 15.7038C34.5722 15.7847 34.9847 16.0679 35.026 16.0274C35.0672 15.987 35.026 15.9061 34.9847 15.9061ZM36.6347 15.097C36.2653 14.9333 34.9022 14.9333 34.9435 15.2992C34.9847 15.6652 35.7272 15.2992 35.9335 15.2992C36.1397 15.2992 36.9647 15.2569 36.6366 15.097M32.8791 30.7253C32.7966 30.6848 32.6728 30.7657 32.6316 30.6848C32.5903 30.6039 32.5078 30.6444 32.5078 30.6848C32.5078 30.7253 32.4666 30.8062 32.5491 30.8871C32.5948 30.9262 32.6534 30.9477 32.7141 30.9477C32.7747 30.9477 32.8333 30.9262 32.8791 30.8871C32.898 30.8642 32.9082 30.8356 32.9082 30.8062C32.9082 30.7767 32.898 30.7482 32.8791 30.7253ZM32.0953 28.013C32.2191 28.013 32.2191 27.9321 32.2603 27.9321C32.3016 27.9321 32.2603 28.013 32.3841 28.013C32.5078 28.013 32.6316 27.728 32.2603 27.728C31.9697 27.728 32.011 28.013 32.0953 28.013ZM32.5903 28.3366C32.3841 28.2962 32.4253 28.4175 32.2603 28.4175C32.011 28.458 32.2191 28.2557 32.1366 28.1748C32.0953 28.1343 31.9697 28.3366 31.9303 28.458C31.9303 28.5389 31.9303 28.7007 32.011 28.7412L32.7966 28.8221C32.9616 28.8221 32.7966 28.3771 32.5903 28.3366ZM30.0309 30.968C30.1134 30.968 30.1547 30.7253 30.1134 30.6039C30.0722 30.4825 29.8228 30.5635 29.8228 30.6444C29.8228 30.7253 29.9916 30.968 30.0309 30.968ZM26.7272 30.968C26.7272 30.8871 26.7272 30.5635 26.6447 30.4825C26.5622 30.4016 26.5622 30.523 26.5209 30.523C26.4797 30.523 26.4797 30.3612 26.4384 30.3612C26.3972 30.3612 26.4384 30.6039 26.5209 30.7657C26.6034 30.9275 26.7272 31.1703 26.7272 30.968ZM26.6447 30.2398C26.7272 29.9971 26.7684 29.7538 26.7684 29.5098C26.7684 29.3075 26.6447 29.1457 26.6034 29.1457C26.5622 29.1457 26.6034 29.2671 26.6447 29.4693C26.6447 29.6716 26.5622 29.8739 26.5209 30.0762C26.5209 30.1185 26.6034 30.3207 26.6447 30.2398ZM22.4334 39.309C28.5834 45.3422 38.4947 45.3422 44.6466 39.309C50.7985 33.2757 50.7967 23.5575 44.6466 17.5242C38.4966 11.491 28.5853 11.4928 22.4334 17.5242C16.2815 23.5556 16.2815 33.3162 22.4334 39.309ZM18.5109 28.743H20.9053C20.9465 29.9579 21.1528 31.1323 21.524 32.2662C21.3934 32.229 21.2685 32.1746 21.1528 32.1044C20.9878 32.0235 20.864 32.1449 20.8228 32.1449C20.6578 32.1449 20.4515 32.0235 20.4515 32.1449C20.4515 32.2662 20.6165 32.1853 20.6165 32.2662C20.6165 32.3471 20.204 32.3471 20.1628 32.1853C20.1215 32.0235 20.039 31.8598 19.9978 32.0639C19.9565 32.2681 19.7915 32.2258 19.709 32.2662C19.6678 32.3067 19.6265 32.3876 19.6265 32.4685C19.6265 32.5494 19.4203 32.5089 19.4203 32.6303C19.4203 32.7517 19.544 32.7921 19.5853 32.9135C19.6265 33.0349 19.7503 33.1158 19.6678 33.1562C19.5853 33.1967 19.6265 33.1158 19.544 33.1562C19.4615 33.1967 19.9153 34.4121 19.9978 34.3699C20.0803 34.3276 19.874 33.9653 19.874 33.8035C19.874 33.6417 19.9153 33.6012 20.039 33.5203C20.1628 33.4394 20.4928 34.0058 20.6165 33.9249C20.7403 33.8439 20.5753 33.763 20.699 33.7226C20.8228 33.6821 21.194 34.2503 21.3178 34.0885C21.4003 33.9653 21.4828 34.1694 21.4828 34.2099C21.6084 34.4121 21.8147 34.4121 21.9384 34.6549C22.0622 34.8976 22.3509 35.3426 22.5572 35.3426C22.7634 35.3426 22.6397 35.1403 22.7222 35.1403C22.8047 35.1403 22.8872 35.4235 23.0109 35.5853C23.0982 35.71 23.2312 35.797 23.3822 35.8281C23.6709 36.194 24.0009 36.5581 24.3328 36.9222L22.6397 38.5826C20.018 35.9496 18.5383 32.423 18.5109 28.743ZM32.1778 25.3816L32.011 25.4625C31.7832 25.5628 31.5741 25.6995 31.3922 25.8671L29.6991 24.2084C30.6909 23.357 31.9303 22.8311 33.2091 22.7907V25.1389C32.9125 25.1685 32.6212 25.2365 32.3428 25.3411C32.4253 25.1793 32.5903 25.0175 32.5903 25.0175C32.5903 25.0175 32.3016 25.1793 32.1778 25.3816ZM30.8972 29.2285V29.3094C30.8972 29.2285 30.8559 29.188 30.8147 29.1071C30.7734 29.0666 30.7322 29.0262 30.6909 29.0262H30.4847L30.4022 29.0666H29.8228C29.7403 29.0666 29.6991 29.0666 29.6991 29.0262C29.6578 28.8644 29.9053 28.9857 30.0722 28.5003C30.1134 28.4598 30.1134 28.3789 30.1547 28.3385L30.2372 28.2171L30.2784 28.1766C30.3609 28.0957 30.4434 28.0957 30.5259 28.0957H30.6084L30.6909 28.1766L30.8147 28.4194C30.8559 28.4598 30.8972 28.4598 30.8972 28.5003C30.9594 28.5304 31.0153 28.5716 31.0622 28.6216L31.1034 28.6621V28.7025C31.1447 28.743 31.1447 28.743 31.1859 28.743H31.3509C31.4334 28.7025 31.4334 28.743 31.4747 28.743V28.7835C31.4747 28.8239 31.4747 28.8239 31.4334 28.8644C31.4334 28.9048 31.3922 28.9048 31.3922 28.9453C31.3509 28.9857 31.3097 29.0262 31.2684 29.0262C31.1859 29.0262 31.1034 28.9857 31.0622 28.9857C31.0209 28.9857 30.9797 28.9857 30.9797 29.0262V29.2285M26.4384 33.1158C26.3205 32.891 26.2637 32.6402 26.2734 32.3876C26.2689 32.1438 26.1977 31.9056 26.0672 31.698C26.0259 31.5362 25.9847 31.3744 25.9847 31.2126C25.9847 30.9294 25.7353 31.0103 25.7353 30.9294C25.7353 30.8485 25.9415 30.9294 25.9415 30.8485C25.9415 30.7676 25.694 30.4439 25.4878 30.363C25.2815 30.2821 25.364 30.1607 25.364 30.0394C25.364 29.918 25.364 29.7948 25.2815 29.7139C25.2403 29.5521 25.2815 29.2689 25.4878 29.2689C25.5703 29.2689 25.694 29.3498 25.8197 29.2689C25.9453 29.188 25.8609 28.9453 25.8609 28.743H27.0159C27.0159 28.9048 27.0572 29.1071 27.0572 29.2689C26.9747 29.3094 26.9334 29.3903 26.9747 29.4307C27.0159 29.4712 27.0572 29.5116 27.0984 29.4712C27.3047 30.6462 27.8409 31.7385 28.6678 32.6303L26.9747 34.2908C26.8509 34.1694 26.7272 34.0058 26.6034 33.8439V33.7226C26.6034 33.4394 26.3972 33.2776 26.3147 33.0349M24.8278 30.2821C24.7149 29.7757 24.6459 29.2608 24.6215 28.743H25.6115C25.529 28.8644 25.3228 28.9857 25.2815 29.1071C25.2403 29.2285 24.9928 29.633 25.1578 29.7948C25.529 30.1994 25.0753 30.363 24.8278 30.2821ZM25.034 36.2749L24.8278 36.4772L24.539 36.194C24.704 36.1131 24.869 36.1535 25.034 36.2749ZM27.5934 25.8671C27.5522 25.8671 27.5522 25.9093 27.5109 25.9093C27.3872 26.0307 27.0572 25.9903 27.0984 26.1116C27.1397 26.233 28.0078 25.8266 28.0078 25.9093C28.0078 25.9921 27.6347 26.1116 27.3891 26.233C27.1434 26.3543 27.0572 26.5566 26.6447 26.5566C26.4384 26.5566 26.3559 26.7184 26.2734 26.8398C26.1616 26.9922 26.0649 27.1548 25.9847 27.3253C25.9872 27.5778 25.9307 27.8275 25.8197 28.0553H24.6197C24.7024 25.9767 25.5373 23.9949 26.9747 22.4652L28.6678 24.1275C28.2558 24.6737 27.8962 25.256 27.5934 25.8671ZM29.1628 24.6534L30.6497 26.1116H30.4847C30.3197 26.1116 30.3197 25.9903 30.1959 25.9903C29.9466 26.0307 29.9053 26.1116 29.8641 26.0712C29.6821 25.9036 29.473 25.7669 29.2453 25.6666C28.9753 25.5764 28.6804 25.5902 28.4203 25.7052C28.3791 25.7052 28.3791 25.7457 28.3378 25.7457C28.6266 25.3816 28.9153 25.0175 29.1628 24.6534ZM27.1003 27.6084C27.1003 27.7703 27.0572 27.9339 27.0572 28.0957H26.1909C26.1497 27.9744 26.1909 27.8512 26.2734 27.7298C26.3559 27.568 26.5622 27.4871 26.7684 27.5275C26.8815 27.5403 26.9943 27.5675 27.1003 27.6084ZM27.8409 29.5116L27.9253 29.633C28.0078 29.7139 28.0903 29.7948 28.1728 29.7544C28.2553 29.7139 28.4616 29.7544 28.5028 29.7544C28.6266 29.7948 28.7091 29.8757 28.7916 29.9566C28.8741 30.0798 29.0391 29.9989 29.1628 30.0798C29.2866 30.1607 29.4103 30.2417 29.2453 30.3226C29.0803 30.4035 29.4103 30.5653 29.4516 30.5653C29.4928 30.5653 29.5341 30.4844 29.5341 30.363C29.5341 30.3226 29.6166 30.1607 29.7403 30.2012C29.8641 30.2417 30.2372 30.6867 30.3591 30.5248C30.4847 30.363 30.4022 30.1607 30.4434 30.0798C30.4434 30.0394 30.4847 29.9989 30.5259 29.9989C30.6497 30.2012 30.7322 30.363 30.8972 30.5248L29.2041 32.1853C28.4873 31.4478 28.0124 30.5165 27.8409 29.5116ZM29.1628 23.7211L27.5128 22.0625C29.0719 20.6543 31.0911 19.8363 33.2091 19.7548V22.1029C31.7222 22.1434 30.3197 22.7098 29.1628 23.7211ZM27.0159 21.5752L25.3247 19.9166C27.4648 17.9383 30.2712 16.7997 33.211 16.717V19.0652C30.9043 19.1369 28.7031 20.029 27.0178 21.5752M26.5228 22.022C24.9535 23.6794 24.045 25.8354 23.9634 28.0957H21.5653C21.6497 25.2127 22.8107 22.4604 24.8278 20.3616L26.5228 22.022ZM23.9615 28.743C23.9615 29.188 24.0028 29.5925 24.0853 30.0394C24.044 30.0394 24.044 29.9162 23.9203 29.9566C23.7965 29.9971 23.3409 30.7657 23.1347 31.0912C22.9697 31.3744 23.2172 31.9812 22.9697 32.1853C22.7301 32.2632 22.4796 32.3042 22.2272 32.3067H22.1859C21.7845 31.1859 21.5613 30.0112 21.524 28.8239L23.9615 28.743ZM33.1678 43.1577C29.4182 43.0823 25.8357 41.6218 23.1365 39.0681L24.8278 37.4076C27.0865 39.509 30.0558 40.7201 33.1678 40.8095V43.1577ZM33.1678 40.1604C30.2281 40.0776 27.4217 38.939 25.2815 36.9608L25.5703 36.6794C25.6334 36.7284 25.7028 36.7692 25.7765 36.8008C25.9559 36.8877 26.1589 36.9161 26.3559 36.8817C26.5209 36.8413 26.8509 36.5581 27.0572 36.5581C27.2634 36.5581 27.5934 36.639 27.7997 36.5176C28.0059 36.3963 27.6759 35.9899 27.5522 35.7876C27.5109 35.7471 27.5109 35.7067 27.4697 35.6662C29.09 37.0083 31.13 37.7656 33.2503 37.8122L33.1678 40.1604ZM33.1678 37.1244C31.0492 37.0434 29.0293 36.2253 27.4697 34.8167L29.1628 33.1562C29.9484 33.8439 30.8972 34.3699 31.9697 34.6144C31.5984 34.7762 31.4334 35.019 31.4747 35.2212C31.5159 35.4235 31.2272 35.5449 31.2272 35.7876C31.2272 36.0303 31.5572 36.1921 31.5984 36.4367C31.6397 36.5581 31.9285 36.7603 32.1778 36.9222C32.5078 37.0031 32.8378 37.0435 33.1266 37.0031L33.1678 37.1244ZM33.0853 33.8844C32.9616 33.8035 32.8791 33.9653 32.7141 34.0462C31.5825 33.8828 30.5221 33.4056 29.6578 32.6708L31.3509 31.0103C31.8872 31.4148 32.5078 31.698 33.1678 31.7385C33.1678 31.8194 33.2503 31.9003 33.2503 32.0639C33.2503 32.2276 33.1266 32.3067 33.1678 32.3876C33.2091 32.4685 33.5803 32.3876 33.6216 32.2662C33.6628 32.1449 33.4978 32.064 33.4566 31.9407C33.4153 31.8598 33.4153 31.8194 33.3741 31.7385H33.4997C33.6235 31.7385 33.7472 31.7385 33.871 31.698C33.892 31.6957 33.9116 31.6864 33.9266 31.6717C33.9416 31.657 33.9511 31.6378 33.9535 31.6171C33.9535 31.5767 33.9947 31.5362 33.9947 31.4957C33.9947 31.4553 34.036 31.4553 34.036 31.4148L34.0772 31.4553C34.1185 31.5362 34.2028 31.7789 34.2835 31.7385C34.3641 31.698 34.4091 31.3339 34.3678 31.253C34.3277 31.2005 34.306 31.1366 34.306 31.071C34.306 31.0053 34.3277 30.9414 34.3678 30.8889C34.3678 30.8485 34.4091 30.6057 34.4916 30.6462C34.5741 30.6867 34.4916 30.8889 34.4916 30.9698C34.4916 31.0912 34.5741 31.253 34.6978 31.1721C34.7803 31.1317 34.8628 31.0103 34.9453 31.0507C35.0278 31.0912 34.7391 31.1721 34.6978 31.253C34.6566 31.3339 34.8216 31.3744 34.7803 31.4148C34.7391 31.4553 34.6978 31.4148 34.6566 31.4553C34.6153 31.4957 34.7391 31.7385 34.6566 31.7789C34.5741 31.8194 34.2853 31.9003 34.2028 31.9407C34.1203 31.9812 34.036 31.9003 34.0772 31.8598C34.1185 31.8194 34.0772 31.6576 33.9947 31.6576C33.9122 31.6576 33.9122 31.698 33.9122 31.7789C33.9122 31.8598 33.9947 31.9812 33.9947 32.0235C33.9947 32.0658 33.871 32.1044 33.7885 32.1449C33.706 32.2662 33.5822 32.3876 33.4585 32.4685C33.3347 32.5494 33.0872 32.5494 33.0872 32.6303C33.0872 32.7112 33.211 32.7112 33.2522 32.7517C33.3347 32.873 33.376 33.0349 33.211 33.1158C33.046 33.1967 32.8397 32.9944 32.7572 33.0349C32.6747 33.0753 32.6335 33.2776 32.5922 33.5203C32.551 33.763 33.046 33.8439 33.2935 33.7226C33.4585 33.6417 33.4172 33.3989 33.5822 33.318C33.7472 33.2371 33.706 33.0753 33.871 33.1158C34.036 33.1562 33.9947 32.9944 34.1616 32.9944C34.3285 32.9944 34.3266 33.1158 34.5328 33.1562C34.8628 33.2371 34.8628 33.4799 34.9041 33.3585C34.9453 33.2371 34.9866 33.1562 34.7391 33.0753C34.4916 32.9944 34.3678 32.7112 34.5741 32.7921C34.8216 32.9135 35.0278 32.9135 35.0691 33.0349C35.1103 33.1562 35.3578 33.1158 35.3991 33.2371C35.4403 33.4394 35.6053 33.2371 35.4816 33.1158C35.3578 32.9944 35.3991 32.9539 35.4816 32.873C35.5641 32.7921 35.6053 32.9135 35.7291 32.7517C35.8528 32.5899 35.6878 32.6303 35.6466 32.5494C35.6053 32.4685 35.6466 32.0235 35.8116 32.1044C35.9766 32.1853 36.1416 32.064 36.0591 32.0235C35.9766 31.9812 36.1003 31.7385 36.1416 31.7385C36.1828 31.7385 36.1416 31.9003 36.1828 31.9407C36.2241 31.9812 36.6385 31.8194 36.6797 32.0235C36.721 32.2276 36.391 32.3471 36.3085 32.3471C36.1416 32.3471 36.0178 32.5089 35.896 32.6708C35.7703 32.8326 35.6466 32.873 35.7291 33.0349C35.8116 33.1967 35.9766 33.1562 36.1416 33.0753C36.3066 32.9944 36.4322 32.873 36.5147 32.8326C36.6797 32.7517 36.8035 33.2371 36.721 33.318C36.6385 33.3989 36.4735 33.4394 36.391 33.5203C36.1416 33.6417 35.8941 33.763 35.6053 33.763C35.4403 33.8035 35.4403 33.8439 35.3991 34.0058C35.3578 34.1676 34.6153 34.0462 34.4503 34.0462C34.2853 34.0462 34.5741 33.6821 34.3266 33.7226L33.5822 33.8439C33.541 33.8439 33.2916 34.0462 33.0853 33.8844ZM35.2753 37.6503C35.4816 37.7313 35.6878 37.8931 35.8116 38.0549C35.9353 38.2572 35.9766 38.3399 35.8941 38.5422C35.6878 38.9063 35.7703 39.149 36.1828 39.2704C36.4322 39.3513 36.5147 39.594 36.6797 39.7558C35.7617 39.9928 34.8197 40.1285 33.871 40.1604V37.8122C34.3266 37.7717 34.8216 37.7313 35.2772 37.6503M33.871 37.1649V36.8817C34.4091 36.8008 34.2835 37.1244 34.6566 37.0031C34.7138 36.9846 34.7751 36.9824 34.8335 36.9968C34.8919 37.0111 34.945 37.0413 34.9866 37.084C34.6134 37.0892 34.2409 37.1162 33.871 37.1649ZM33.871 43.1981V40.8076C35.122 40.7726 36.3607 40.5544 37.546 40.1604C37.5872 40.2027 37.6285 40.2027 37.6697 40.2027C37.8338 40.1916 37.9912 40.1349 38.1235 40.039C38.5209 39.8855 38.8959 39.6815 39.2391 39.4322C40.3268 38.8891 41.3279 38.1934 42.211 37.3672L43.9041 39.0276C41.221 41.6204 37.6285 43.0768 33.8728 43.1981M40.561 22.022L41.1385 21.4538C41.2893 21.6213 41.4923 21.7351 41.716 21.7775C41.9222 21.8198 42.0047 21.9007 42.046 22.1029C42.0872 22.3052 42.2935 22.3861 42.5016 22.4266C42.7098 22.467 42.8316 22.7098 42.9966 22.7098C43.1616 22.7098 43.6979 23.4379 43.9041 23.6807C44.0279 23.802 44.1929 24.0061 44.3166 23.8443C44.4404 23.6807 44.4404 23.7211 44.5229 23.6807C45.1508 25.0738 45.5015 26.5717 45.556 28.0939H43.1616C43.1616 27.568 43.0791 27.0421 42.9554 26.5162C43.0404 26.3536 43.0829 26.1729 43.0791 25.9903C43.0791 25.8266 42.9141 25.7457 42.7904 25.8671C42.7066 25.5617 42.5962 25.2639 42.4604 24.9771C42.4172 24.8152 42.376 24.613 42.3347 24.4512C42.3347 24.4107 42.2522 24.3702 42.1697 24.2893C42.0872 24.1275 42.046 24.0061 41.9635 23.8848C42.0872 23.802 42.1285 23.5998 41.9635 23.6402C41.716 23.6807 41.881 23.5189 41.7985 23.4379C41.716 23.357 41.716 23.4379 41.6747 23.4784C41.3545 22.9931 40.9959 22.5332 40.6022 22.1029V22.0625C40.5197 22.0625 40.5197 22.022 40.561 22.022ZM42.0047 35.7471C41.9222 35.5853 41.881 35.3831 41.7985 35.2212C41.7572 35.0594 41.4272 35.0594 41.4272 35.1403C41.4272 35.3021 41.4272 35.464 41.386 35.6258V35.6662L40.5197 34.8167C42.0891 33.1593 42.9976 31.0033 43.0791 28.743H45.4735C45.3966 31.6156 44.2339 34.3577 42.211 36.4367L42.0872 36.3153C42.1185 36.1221 42.0898 35.9241 42.0047 35.7471ZM40.0229 37.3672C40.1466 37.1649 40.396 36.8008 40.5197 36.5985C40.6435 36.3963 40.1879 36.1131 39.9404 36.0303C39.6929 35.9476 39.6929 35.8281 39.6929 35.6258C39.8166 35.5449 39.9404 35.4235 40.0641 35.3021L41.7572 36.9626C41.1987 37.4785 40.5902 37.9398 39.9404 38.3399C39.8991 38.259 40.1879 37.974 40.2704 37.8526C40.3529 37.7313 39.9404 37.5694 40.0229 37.3672ZM41.0541 27.6893C40.8479 27.4062 41.1385 27.3657 41.4272 27.2443C41.5922 27.1634 41.7985 27.2848 41.7985 27.2039C41.7985 27.123 41.881 26.9612 41.9635 26.9207C42.046 26.8803 42.1697 26.7993 42.211 26.7184C42.211 26.7993 42.2522 26.8803 42.2522 26.9612C42.1731 27.0968 42.1305 27.2499 42.1285 27.4062C42.1285 27.5275 42.1285 27.6893 42.2522 27.4062C42.2522 27.3657 42.2935 27.3657 42.2935 27.3253C42.376 27.6084 42.376 27.8512 42.376 28.0957H40.6022V28.0553C40.726 27.853 41.1797 27.8916 41.056 27.6893M41.386 24.3702C41.386 24.3702 41.386 24.4107 41.3447 24.4107C41.3035 24.4511 41.0972 24.1275 41.0972 24.3702C41.0972 24.613 41.1797 24.6939 41.3447 24.7343C41.5097 24.7748 41.4272 24.8557 41.551 24.8961C41.5922 24.8961 41.6747 24.9366 41.716 24.9771C41.9222 25.4221 42.046 25.8671 42.1697 26.3543C42.1076 26.3845 42.0516 26.4256 42.0047 26.4757C41.9222 26.5566 41.9635 26.7184 41.881 26.8398C41.7572 27.0421 41.716 27.1634 41.386 27.0825C41.1797 27.0016 41.3447 26.7589 41.386 26.5566C41.4272 26.3543 41.5097 26.3948 41.5097 26.2734C41.5097 26.1521 41.0972 25.7052 40.891 25.8689C40.6847 26.0307 40.726 26.1925 40.561 26.3543C40.4785 26.4353 40.396 26.4353 40.2704 26.3543C40.1447 26.2734 40.1054 26.1925 40.1466 26.1116C40.1879 26.0307 39.8579 25.6648 39.7341 25.5048C39.6555 25.406 39.5556 25.3255 39.4414 25.2693C39.3273 25.213 39.2018 25.1823 39.0741 25.1793C38.8492 24.8035 38.586 24.4511 38.2885 24.1275L39.9816 22.467C40.561 23.0739 41.0129 23.6807 41.386 24.3702ZM38.536 25.503L38.4554 25.6243C38.4141 25.7052 38.206 25.5434 38.1647 25.5839C38.1235 25.6243 38.4554 26.0307 38.1235 25.9093C37.7935 25.7861 37.9997 25.7861 37.9997 25.6648C37.9997 25.5434 37.711 25.4625 37.876 25.3816C38.041 25.3007 37.876 25.1793 38.041 25.1389C38.206 25.0984 38.1647 24.9366 37.9585 24.8961C37.7522 24.8557 37.7935 25.3411 37.6697 25.2602C37.546 25.2198 37.4222 25.2198 37.2985 25.2198L37.876 24.6534C37.9394 24.6859 38.011 24.7 38.0822 24.6939C38.1647 25.0175 38.3729 25.2602 38.5379 25.503M37.876 33.7226C38.1235 33.763 38.4141 33.8035 38.6616 33.8844C38.8266 33.9653 38.9504 34.129 39.0741 33.9249C39.3216 33.5608 39.4866 33.1562 39.5691 32.7112C39.6516 32.1044 39.5279 31.9021 39.4454 31.9021C39.3629 31.9021 39.1979 32.0639 39.0329 32.0639C38.9504 32.0639 38.9504 32.2258 38.9504 32.3471C38.9504 32.4685 38.7854 32.5899 38.7441 32.5089C38.7029 32.428 38.6204 32.4685 38.6616 32.5494C38.7029 32.6303 38.3316 32.5899 38.1647 32.5089C37.9172 32.3876 38.4554 32.3876 38.7029 32.1853C38.9091 32.0235 39.1154 31.8194 39.3216 31.6171C39.4454 31.4148 39.4454 31.1721 39.6516 31.0103C39.8579 30.8485 40.1879 30.8889 40.2291 30.6462C40.2704 30.4035 40.3116 30.4439 40.4354 30.4844C40.5591 30.5248 41.716 30.4439 41.716 30.0798C41.716 29.9162 41.4685 29.7139 41.221 29.6753C41.056 29.6753 41.0147 29.3498 40.9322 29.188C40.852 29.0175 40.7553 28.855 40.6435 28.7025H42.376C42.2933 30.7803 41.4592 32.7613 40.0229 34.2908L39.9816 34.2503V34.0885C40.0229 33.763 39.7754 33.2371 39.6929 33.318C39.6104 33.3989 39.6929 33.3989 39.4454 33.763C39.3629 33.8844 39.2391 34.0885 39.0741 34.0885C38.9091 34.0885 38.9091 34.0058 38.6616 34.0462C38.4427 34.0847 38.2186 34.0847 37.9997 34.0462C37.6064 33.9199 37.2319 33.7431 36.886 33.5203C36.9272 33.4799 37.051 33.5608 37.051 33.4394C37.051 33.318 37.711 33.6821 37.876 33.7226ZM44.3579 38.6231L42.6666 36.9626C44.8093 34.7475 46.0443 31.8355 46.1354 28.7835H48.5692C48.4886 32.4679 46.9832 35.9846 44.3579 38.6213M48.5692 28.0957H46.1335C46.093 26.3547 45.671 24.6426 44.896 23.0757L44.9373 23.0334C45.1023 22.8716 44.1516 21.6561 43.9866 21.5347C43.8216 21.4134 43.6566 21.2111 43.4504 21.0088C43.115 20.6869 42.8112 20.3347 42.5429 19.957L44.3166 18.2156C46.9704 20.8544 48.4922 24.3902 48.5692 28.0957ZM33.871 13.6792C37.632 13.7625 41.2254 15.2218 43.9454 17.7706L42.2954 19.3888C42.211 19.3484 42.1285 19.3079 42.1697 19.227C42.2522 19.1056 42.046 19.1056 42.0047 18.782C41.9098 18.4558 41.6875 18.1796 41.386 18.0134C41.1797 17.892 41.056 17.7302 40.8497 17.6474C40.6435 17.5665 40.231 17.3238 40.0247 17.4047C39.8918 17.4506 39.7529 17.4778 39.6122 17.4856C37.8568 16.564 35.9031 16.0648 33.9122 16.0293L33.871 13.6792ZM33.871 16.717C35.6466 16.7574 37.3397 17.2024 38.9504 17.9729C38.9982 18.2384 39.1115 18.4884 39.2804 18.7011C39.3629 18.9034 39.4866 19.0652 39.6104 19.2675C39.7341 19.3888 39.6516 19.6315 39.6929 19.8357C39.6929 19.9166 39.7754 19.9975 39.8166 20.0784V20.402C39.8166 20.4425 39.9816 20.4425 40.1054 20.3616C40.2291 20.2807 40.3116 20.1188 40.4785 20.1593C40.6454 20.1997 40.8497 20.5234 40.9735 20.7257L40.1879 21.4943C40.1054 21.3325 40.0229 21.1302 40.0641 21.1302C40.1054 21.1302 40.1879 21.1707 40.2291 21.1707C40.396 21.1707 40.1054 21.0493 40.1054 21.0088C39.9816 20.8875 39.9816 20.7257 39.8166 20.6043C39.6516 20.4829 39.4041 20.5638 39.3216 20.402C39.1599 20.1134 38.9344 19.864 38.6616 19.672C38.6204 19.672 38.9916 20.1188 38.8679 20.1998C38.7441 20.2807 38.2885 19.9166 38.2491 19.9975C38.206 20.0784 38.7441 20.2807 38.9091 20.4425C38.9916 20.5234 39.1566 20.7661 39.3216 20.9684C37.7487 19.7972 35.8446 19.1324 33.871 19.0652V16.717ZM33.871 19.7143C35.9902 19.7949 38.0109 20.613 39.571 22.022L37.876 23.6807C36.7662 22.7123 35.3542 22.1418 33.871 22.0625V19.7143ZM33.871 22.7502C35.1715 22.8151 36.4102 23.3148 37.381 24.1661L37.2985 24.2489L37.216 24.2084C37.0097 24.1275 36.5972 24.5321 36.6797 24.5725C36.7622 24.613 36.9272 24.4107 37.0097 24.4512H37.051L36.3497 25.1793C36.1435 25.2602 35.9372 25.4221 35.9372 25.5434V25.5839L35.6878 25.8266L35.5641 25.7052C35.3689 25.545 35.1451 25.4215 34.9041 25.3411C35.0278 25.2602 35.0691 25.1389 35.1103 24.9771C35.1103 24.7343 35.0278 24.8152 34.9041 24.9366C34.7803 25.058 34.6566 25.0984 34.5741 25.2198C34.3627 25.1405 34.1385 25.0994 33.9122 25.0984V22.7502H33.871ZM33.5822 25.7475C33.6235 25.8266 33.5822 25.9093 33.541 25.9498C33.4585 26.0307 33.211 25.7475 33.1697 25.9903C33.0872 26.233 33.3347 26.1116 33.3347 26.1521C33.455 26.307 33.633 26.4088 33.8297 26.4353C33.9947 26.4353 34.2422 26.4353 34.2422 26.5971C34.2422 26.678 34.4485 26.678 34.4916 26.7589C34.4916 26.8803 34.6153 27.0825 34.6978 27.0421C34.7803 27.0016 34.9041 27.0825 34.9453 27.1634C34.9866 27.2443 34.9453 27.2848 34.9041 27.3657C34.7803 27.4871 35.0278 27.4466 35.0691 27.6893C35.1103 27.9321 34.8628 27.7703 34.8216 27.9339C34.7391 28.0553 34.6566 28.1362 34.5741 28.2575C34.5328 28.298 34.6153 28.3789 34.6566 28.3385C34.6978 28.298 34.7803 28.1766 34.9041 28.1766C35.0278 28.1766 35.1516 28.6216 35.2753 28.6621C35.3991 28.7025 35.3578 28.8644 35.3991 28.9048C35.4403 28.9453 35.1928 28.9048 35.2341 28.9857C35.2753 29.0666 35.5228 29.1071 35.5228 29.2285C35.4816 29.3498 35.3991 29.4712 35.2341 29.4712C35.1103 29.4712 34.9041 29.188 34.9041 29.2689C34.9041 29.3498 34.9866 29.5925 35.1103 29.5925C35.2341 29.5925 35.5228 29.4712 35.3991 29.633C35.2753 29.7948 35.3166 30.0375 35.2341 30.0375C35.1516 30.0375 35.1103 30.0375 35.1928 30.1607C35.2341 30.2821 35.1928 30.4035 35.1103 30.5248C35.0278 30.6057 34.8216 30.5248 34.8216 30.4844C34.8216 30.4439 35.0691 30.4439 35.0691 30.3226C35.0691 30.2012 34.9453 30.1607 34.6978 30.2417C34.5741 30.2821 34.5328 30.2012 34.4503 30.2012C34.3678 30.2012 34.1203 30.4844 34.1203 30.5248V30.7271C34.1233 30.8716 34.0793 31.0133 33.9947 31.1317C33.8297 31.1721 33.706 31.1721 33.541 31.1721C32.881 31.1721 32.221 30.8889 31.7241 30.4844C31.8269 30.4327 31.9404 30.405 32.056 30.4035C32.1797 30.4439 32.221 30.363 32.3035 30.3226C32.386 30.2821 32.5922 30.4035 32.716 30.3226C32.8397 30.2417 33.1285 29.7157 33.0872 29.5925C33.046 29.4693 33.376 29.2689 33.3347 29.2285C33.2935 29.188 33.2522 29.2689 33.2522 29.2285C33.2522 29.188 33.3347 29.188 33.2522 29.0262C33.1697 28.8644 33.046 28.9453 32.9635 28.9453C32.8397 28.8644 32.6335 28.8239 32.5922 28.8644C32.551 28.9048 32.4272 28.7835 32.386 28.8239C32.3447 28.8239 32.2622 28.8644 32.2622 28.9453C32.221 29.0262 32.3035 29.1071 32.3035 29.188C32.2622 29.3498 32.0128 29.4712 32.0128 29.5925C32.0128 29.7139 31.8891 29.633 31.8478 29.6735C31.8066 29.7139 31.8478 29.7948 31.7653 29.7948C31.6828 29.7948 31.5591 29.9971 31.4766 30.1607C31.3528 29.9989 31.2291 29.7948 31.1053 29.633C31.1878 29.5925 31.2703 29.5521 31.3116 29.5925C31.4353 29.6735 31.9303 28.8239 31.8478 28.5812C31.7653 28.3385 31.6416 28.5003 31.5178 28.5407C31.3941 28.5812 31.3941 28.4598 31.4353 28.4194C31.4766 28.3789 32.0128 28.3789 31.7241 28.2171C31.6003 28.1362 31.2703 28.1362 31.3116 28.0148C31.3528 27.8935 31.5178 28.0148 31.5591 28.0148C31.7653 28.0957 31.8891 27.6893 32.0128 27.6893C32.2191 27.6893 32.1385 27.2848 31.9303 27.4062C31.7222 27.5275 31.6416 27.4871 31.5591 27.6084C31.4766 27.7298 31.2703 27.8916 31.2703 27.7298C31.2703 27.6489 31.7241 27.4062 31.8066 27.2848C31.8977 27.1923 31.9679 27.082 32.0128 26.9612C32.056 26.8398 32.6316 26.7589 32.7572 26.678C32.8397 26.5971 32.9222 26.4757 32.9222 26.3543C32.9222 26.233 32.7572 26.2734 32.716 26.1925C32.6747 26.1116 32.9222 26.1925 32.9222 26.0712C32.9222 25.9498 32.716 26.0712 32.6335 25.9903C32.6335 25.9498 32.6335 25.9498 32.6747 25.9093C33.046 25.7861 33.2935 25.7457 33.5822 25.7457H33.6647M33.211 13.6811V16.0293C30.0989 16.1186 27.1297 17.3298 24.8709 19.4311L23.1778 17.7706C25.8774 15.2165 29.4607 13.756 33.211 13.6811ZM22.6397 18.2561L24.3328 19.9166C22.1901 22.1317 20.9551 25.0437 20.864 28.0957H18.4696C18.5836 24.4256 20.0675 20.9242 22.6397 18.2561Z" fill="#780000"/>
</svg>
